<svg aria-hidden="true" style="position: absolute; width: 0; height: 0; overflow: hidden;" version="1.1" xmlns="http://www.w3.org/2000/svg" xmlns:xlink="http://www.w3.org/1999/xlink">
<defs>
<symbol id="icon-home" viewBox="0 0 24 24">
<path d="M2.386 8.211c-0.236 0.184-0.386 0.469-0.386 0.789v11c0 0.828 0.337 1.58 0.879 2.121s1.293 0.879 2.121 0.879h14c0.828 0 1.58-0.337 2.121-0.879s0.879-1.293 0.879-2.121v-11c-0.001-0.3-0.134-0.593-0.386-0.789l-9-7c-0.358-0.275-0.861-0.285-1.228 0zM16 21v-9c0-0.552-0.448-1-1-1h-6c-0.552 0-1 0.448-1 1v9h-3c-0.276 0-0.525-0.111-0.707-0.293s-0.293-0.431-0.293-0.707v-10.511l8-6.222 8 6.222v10.511c0 0.276-0.111 0.525-0.293 0.707s-0.431 0.293-0.707 0.293zM10 21v-8h4v8z"></path>
</symbol>
<symbol id="icon-map" viewBox="0 0 24 24">
<path d="M7 3.723v13.697l-5 2.857v-13.697zM17 20.277v-13.697l5-2.857v13.696zM15.535 22.885c0.082 0.043 0.17 0.075 0.263 0.094 0.033 0.007 0.067 0.012 0.101 0.015s0.068 0.005 0.102 0.005c-0.001 0.001-0.001 0.001-0.001 0.001s0 0 0.001 0c0.173 0 0.344-0.046 0.496-0.132l0.015-0.009 6.985-3.991c0.32-0.183 0.501-0.518 0.503-0.868v-16c0-0.552-0.448-1-1-1-0.183 0-0.354 0.049-0.496 0.132l-6.535 3.734-7.503-3.752c-0.083-0.042-0.171-0.075-0.264-0.094-0.034-0.007-0.067-0.012-0.101-0.015s-0.068-0.005-0.102-0.005c0.001 0 0.001 0 0.001 0s0 0-0.001 0c-0.173 0-0.344 0.046-0.495 0.132l-0.015 0.008-6.985 3.992c-0.321 0.183-0.502 0.518-0.504 0.868v16c0 0.552 0.448 1 1 1 0.183 0 0.354-0.049 0.496-0.132l6.535-3.734zM15 6.618v13.764l-6-3v-13.764z"></path>
</symbol>
<symbol id="icon-message-square" viewBox="0 0 24 24">
<path d="M22 15v-10c0-0.828-0.337-1.58-0.879-2.121s-1.293-0.879-2.121-0.879h-14c-0.828 0-1.58 0.337-2.121 0.879s-0.879 1.293-0.879 2.121v16c0 0.256 0.098 0.512 0.293 0.707 0.391 0.391 1.024 0.391 1.414 0l3.707-3.707h11.586c0.828 0 1.58-0.337 2.121-0.879s0.879-1.293 0.879-2.121zM20 15c0 0.276-0.111 0.525-0.293 0.707s-0.431 0.293-0.707 0.293h-12c-0.276 0-0.526 0.112-0.707 0.293l-2.293 2.293v-13.586c0-0.276 0.111-0.525 0.293-0.707s0.431-0.293 0.707-0.293h14c0.276 0 0.525 0.111 0.707 0.293s0.293 0.431 0.293 0.707z"></path>
</symbol>
<symbol id="icon-user" viewBox="0 0 24 24">
<path d="M21 21v-2c0-1.38-0.561-2.632-1.464-3.536s-2.156-1.464-3.536-1.464h-8c-1.38 0-2.632 0.561-3.536 1.464s-1.464 2.156-1.464 3.536v2c0 0.552 0.448 1 1 1s1-0.448 1-1v-2c0-0.829 0.335-1.577 0.879-2.121s1.292-0.879 2.121-0.879h8c0.829 0 1.577 0.335 2.121 0.879s0.879 1.292 0.879 2.121v2c0 0.552 0.448 1 1 1s1-0.448 1-1zM17 7c0-1.38-0.561-2.632-1.464-3.536s-2.156-1.464-3.536-1.464-2.632 0.561-3.536 1.464-1.464 2.156-1.464 3.536 0.561 2.632 1.464 3.536 2.156 1.464 3.536 1.464 2.632-0.561 3.536-1.464 1.464-2.156 1.464-3.536zM15 7c0 0.829-0.335 1.577-0.879 2.121s-1.292 0.879-2.121 0.879-1.577-0.335-2.121-0.879-0.879-1.292-0.879-2.121 0.335-1.577 0.879-2.121 1.292-0.879 2.121-0.879 1.577 0.335 2.121 0.879 0.879 1.292 0.879 2.121z"></path>
</symbol>
<symbol id="icon-search" viewBox="0 0 24 24">
<path d="M16.041 15.856c-0.034 0.026-0.067 0.055-0.099 0.087s-0.060 0.064-0.087 0.099c-1.258 1.213-2.969 1.958-4.855 1.958-1.933 0-3.682-0.782-4.95-2.050s-2.050-3.017-2.050-4.95 0.782-3.682 2.050-4.95 3.017-2.050 4.95-2.050 3.682 0.782 4.95 2.050 2.050 3.017 2.050 4.95c0 1.886-0.745 3.597-1.959 4.856zM21.707 20.293l-3.675-3.675c1.231-1.54 1.968-3.493 1.968-5.618 0-2.485-1.008-4.736-2.636-6.364s-3.879-2.636-6.364-2.636-4.736 1.008-6.364 2.636-2.636 3.879-2.636 6.364 1.008 4.736 2.636 6.364 3.879 2.636 6.364 2.636c2.125 0 4.078-0.737 5.618-1.968l3.675 3.675c0.391 0.391 1.024 0.391 1.414 0s0.391-1.024 0-1.414z"></path>
</symbol>
</defs>
</svg>
